<?xml version="1.0" encoding="UTF-8" standalone="no"?>
<!DOCTYPE svg PUBLIC "-//W3C//DTD SVG 1.1//EN" "http://www.w3.org/Graphics/SVG/1.1/DTD/svg11.dtd">
<svg version="1.1" xmlns="http://www.w3.org/2000/svg" xmlns:xlink="http://www.w3.org/1999/xlink" preserveAspectRatio="xMidYMid meet" viewBox="0 0 640 640" width="640" height="640"><defs><path d="M117.09 102.25C114.83 99.43 110.71 98.98 107.89 101.24C105.08 103.5 104.63 107.62 106.89 110.44C107.18 110.81 107.52 111.15 107.89 111.45C103.16 113.17 100 117.67 100 122.71C100 122.78 100 123.15 100 123.8L123.99 123.8C123.99 123.15 123.99 122.78 123.99 122.71C123.98 117.67 120.83 113.17 116.08 111.45C118.9 109.19 119.35 105.07 117.09 102.25ZM112 101.99C114.4 101.99 116.36 103.95 116.36 106.35C116.36 108.76 114.4 110.72 112 110.72C109.59 110.72 107.63 108.76 107.63 106.35C107.63 103.95 109.59 101.99 112 101.99ZM102.25 121.62C102.84 116.23 107.7 112.35 113.08 112.95C117.65 113.46 121.25 117.06 121.75 121.62C117.85 121.62 106.15 121.62 102.25 121.62Z" id="cnUra9Cc"></path></defs><g><g><g><use xlink:href="#cnUra9Cc" opacity="1" fill="#606161" fill-opacity="1"></use><g><use xlink:href="#cnUra9Cc" opacity="1" fill-opacity="0" stroke="#000000" stroke-width="1" stroke-opacity="0"></use></g></g></g></g></svg>